PathFileType	4	(X/Y/Z)	D:\TRACE\spot_10-12-23\spot_arm_motion_1_5-platform.trc
DataRate	CameraRate	NumFrames	NumMarkers	Units	OrigDataRate	OrigDataStartFrame	OrigNumFrames
100.00	100.00	      31	5	mm	100.00	5251	      7000
Frame#	Time	Left_Front			Right_Front			Left_Aft			Right_Aft			Post			
		X1	Y1	Z1	X2	Y2	Z2	X3	Y3	Z3	X4	Y4	Z4	X5	Y5	Z5	

5251	52.500	-759.51172	2.24492	-642.55627	813.11389	6.88369	-635.64185	-676.57568	7.86392	495.33569	740.64880	12.96872	581.69128	23.71849	738.30811	-965.02710	
5252	52.510	-758.33276	2.41509	-642.35101	814.11212	7.43754	-635.28772	-675.56256	7.35112	495.54028	741.70081	12.54280	581.72656	24.38168	738.99249	-964.14264	
5253	52.520	-757.57263	3.12956	-642.26666	815.13062	8.00057	-635.38086	-674.51050	7.08700	495.74640	742.58154	12.26025	581.82941	25.03048	739.71948	-963.59637	
5254	52.530	-756.79913	3.55088	-642.11963	815.91223	8.54284	-635.35736	-673.61908	6.82828	495.85599	743.51636	11.89396	581.97229	26.41258	740.43475	-962.70483	
5255	52.540	-755.57208	3.79315	-642.02863	816.72150	8.86255	-635.13867	-672.96594	6.50529	495.85843	744.28619	11.53924	582.02899	27.15631	741.25122	-962.07922	
5256	52.550	-754.86676	4.60720	-642.01294	817.73309	9.41056	-635.16736	-672.08691	6.10376	496.05322	745.16235	11.06343	582.14862	27.86507	741.84143	-961.53870	
5257	52.560	-754.13989	4.92296	-641.71643	818.74316	10.22879	-634.89337	-671.02094	5.71776	496.33426	746.29272	10.61112	582.25189	28.66743	742.63519	-960.84308	
5258	52.570	-753.25458	5.64272	-641.72479	819.51752	10.39763	-634.70422	-670.18842	5.55636	496.21005	746.98010	10.25440	582.23840	29.62140	743.46368	-960.42261	
5259	52.580	-752.38824	6.18906	-641.63623	820.35406	10.94494	-634.55865	-669.33942	5.37337	496.31662	747.88354	9.91361	582.42401	30.77102	744.04193	-959.70740	
5260	52.590	-751.45795	6.47136	-641.38440	821.28656	11.56977	-634.57599	-668.36011	4.88365	496.45062	748.85645	9.57057	582.61359	31.54799	744.96960	-959.06000	
5261	52.600	-750.54059	7.05406	-641.40796	822.10925	12.01016	-634.48450	-667.57733	4.23286	496.62231	749.63849	9.09226	582.69269	31.97645	745.61664	-958.59949	
5262	52.610	-749.82306	7.54702	-641.25146	822.81360	12.34648	-634.23132	-666.81030	4.06855	496.73834	750.38416	8.65504	582.72614	33.15471	746.40344	-957.78693	
5263	52.620	-749.13708	8.18226	-641.09991	823.43469	12.84457	-634.30042	-666.02985	3.79347	496.78702	751.43488	8.29588	583.07050	33.99214	746.99536	-957.14813	
5264	52.630	-748.15643	8.44307	-641.04193	824.86566	13.57341	-634.09113	-665.17108	3.45349	496.80045	752.22455	7.92446	583.15863	34.81447	747.84058	-956.46039	
5265	52.640	-747.31439	8.74904	-640.72620	825.40771	13.95450	-633.86603	-664.34058	2.98017	496.94049	752.90051	7.57459	583.20593	35.64782	748.38635	-955.61328	
5266	52.650	-746.64172	9.78554	-640.75775	826.07263	14.48946	-633.78821	-663.42596	2.72579	497.18039	753.90582	7.14175	583.28619	36.12650	749.24670	-955.11981	
5267	52.660	-745.99048	10.24260	-640.71265	826.81110	15.00250	-633.95245	-662.87689	2.49490	497.21399	754.69165	6.73007	583.35718	37.09296	750.06030	-954.08221	
5268	52.670	-745.02850	10.50837	-640.57489	827.78357	15.54547	-633.53448	-661.97809	2.06795	497.46237	755.16357	6.35187	583.53009	37.89433	750.87341	-953.40356	
5269	52.680	-744.18481	11.02856	-640.49915	828.35529	15.93935	-633.41266	-661.34607	1.70474	497.49503	755.77234	5.74485	583.70282	38.55596	751.46088	-952.95892	
5270	52.690	-743.49902	11.56687	-640.04651	829.12585	16.46619	-633.31525	-660.49365	1.36372	497.52328	756.86475	5.55002	583.81104	39.55538	752.22131	-952.12494	
5271	52.700	-742.79218	12.02954	-640.05548	829.75635	16.90188	-633.12164	-659.73346	1.07800	497.70944	757.66101	5.08192	583.89319	40.14822	752.93304	-951.68048	
5272	52.710	-742.05121	12.39969	-639.93042	830.66046	17.63743	-633.04370	-659.10742	0.82777	497.84311	758.24445	4.73042	583.90143	40.70124	753.77960	-951.05432	
5273	52.720	-741.46680	13.04807	-639.81860	831.36469	18.24122	-632.98346	-658.28918	0.29994	497.94031	758.95099	4.35881	583.96283	41.74795	754.51624	-950.18274	
5274	52.730	-740.71625	13.69996	-639.76343	831.85126	18.64573	-632.81812	-657.60120	-0.07337	497.98941	759.78802	3.92568	584.20630	42.22790	755.23334	-949.71161	
5275	52.740	-740.12305	14.18811	-639.77148	832.46021	19.02240	-632.68927	-656.92334	-0.25456	498.40512	760.38483	3.52965	584.27747	42.67746	756.05548	-948.84845	
5276	52.750	-739.45880	14.46182	-639.43195	833.21606	19.66997	-632.61603	-656.15533	-0.71356	498.63657	760.96124	3.06761	584.34235	43.53084	756.56396	-948.16833	
5277	52.760	-738.74872	15.15561	-639.33624	833.88531	20.09570	-632.55713	-655.79901	-0.89326	498.31592	761.61084	2.68371	584.47351	44.10239	757.38458	-947.50549	
5278	52.770	-738.21600	15.55233	-639.31824	834.49249	20.45570	-632.34210	-655.08832	-1.52465	498.61636	762.25177	2.36124	584.66711	44.63007	758.00098	-946.82373	
5279	52.780	-737.69019	15.88782	-639.01855	835.07599	20.87137	-632.14508	-654.41473	-1.93463	498.76367	762.84381	2.06229	584.75409	45.39703	758.70923	-946.19861	
5280	52.790	-737.08148	16.49152	-639.01660	835.69818	21.42141	-632.00488	-653.94757	-2.10152	498.88260	763.38434	1.65243	584.80292	45.95751	759.40942	-945.60449	
5281	52.800	-736.49536	17.05251	-638.81586	836.05481	21.99208	-632.14252	-653.40070	-2.44184	499.11859	764.03375	1.13495	584.89404	46.27674	760.16638	-944.86121	
